<svg xmlns="http://www.w3.org/2000/svg" width="900" height="760" viewBox="0 0 900 760" font-family="Segoe UI, Helvetica, Arial, sans-serif">
<rect width="900" height="760" fill="#161629"/>
<text x="450.0" y="42" text-anchor="middle" fill="#e8eaf0" font-size="26" font-weight="700">Wiring Diagram — Wedding POS Terminal</text>
<text x="450.0" y="66" text-anchor="middle" fill="#5a5f7a" font-size="13">Raspberry Pi Zero WH · 40-pin GPIO header</text>
<path d="M 250 150 C 342.5 150, 342.5 120, 435 120" stroke="#ff5b5b" stroke-width="2.4" fill="none" opacity="0.9"/>
<path d="M 250 173 C 357.5 173, 357.5 168, 465 168" stroke="#b3bcc4" stroke-width="2.4" fill="none" opacity="0.9"/>
<path d="M 250 196 C 342.5 196, 342.5 144, 435 144" stroke="#ffd23f" stroke-width="2.4" fill="none" opacity="0.9"/>
<path d="M 250 219 C 342.5 219, 342.5 168, 435 168" stroke="#ffd23f" stroke-width="2.4" fill="none" opacity="0.9"/>
<path d="M 250 345 C 342.5 345, 342.5 312, 435 312" stroke="#ff5b5b" stroke-width="2.4" fill="none" opacity="0.9"/>
<path d="M 250 368 C 342.5 368, 342.5 408, 435 408" stroke="#b3bcc4" stroke-width="2.4" fill="none" opacity="0.9"/>
<path d="M 250 391 C 357.5 391, 357.5 360, 465 360" stroke="#4d96ff" stroke-width="2.4" fill="none" opacity="0.9"/>
<path d="M 250 414 C 357.5 414, 357.5 384, 465 384" stroke="#4d96ff" stroke-width="2.4" fill="none" opacity="0.9"/>
<path d="M 250 437 C 342.5 437, 342.5 336, 435 336" stroke="#ffd23f" stroke-width="2.4" fill="none" opacity="0.9"/>
<path d="M 250 460 C 342.5 460, 342.5 360, 435 360" stroke="#ffd23f" stroke-width="2.4" fill="none" opacity="0.9"/>
<path d="M 250 483 C 342.5 483, 342.5 384, 435 384" stroke="#ffd23f" stroke-width="2.4" fill="none" opacity="0.9"/>
<path d="M 650 150 C 557.5 150, 557.5 120, 465 120" stroke="#ff5b5b" stroke-width="2.4" fill="none" opacity="0.9"/>
<path d="M 650 173 C 557.5 173, 557.5 264, 465 264" stroke="#b3bcc4" stroke-width="2.4" fill="none" opacity="0.9"/>
<path d="M 650 196 C 542.5 196, 542.5 240, 435 240" stroke="#ff9f1c" stroke-width="2.4" fill="none" opacity="0.9"/>
<path d="M 650 350 C 557.5 350, 557.5 288, 465 288" stroke="#7f8c9b" stroke-width="2.4" fill="none" opacity="0.9" stroke-dasharray="5 4"/>
<path d="M 650 385 C 557.5 385, 557.5 312, 465 312" stroke="#7f8c9b" stroke-width="2.4" fill="none" opacity="0.9" stroke-dasharray="5 4"/>
<path d="M 650 420 C 542.5 420, 542.5 264, 435 264" stroke="#7f8c9b" stroke-width="2.4" fill="none" opacity="0.9" stroke-dasharray="5 4"/>
<rect x="415" y="104" width="70" height="492" rx="8" fill="#0f3460" stroke="#e94560" stroke-width="1.5"/>
<text x="450" y="96" text-anchor="middle" fill="#e8eaf0" font-size="12" font-weight="600">40-PIN HEADER</text>
<circle cx="435" cy="120" r="5" fill="#ff5b5b" stroke="#000" stroke-width="0.5"/>
<text x="428" y="123.5" text-anchor="end" fill="#e8eaf0" font-size="9.5">1</text>
<circle cx="465" cy="120" r="5" fill="#ff5b5b" stroke="#000" stroke-width="0.5"/>
<text x="472" y="123.5" text-anchor="start" fill="#e8eaf0" font-size="9.5">2</text>
<circle cx="435" cy="144" r="5" fill="#ffd23f" stroke="#000" stroke-width="0.5"/>
<text x="428" y="147.5" text-anchor="end" fill="#e8eaf0" font-size="9.5">3</text>
<circle cx="465" cy="144" r="3.2" fill="#5a5f7a" stroke="#000" stroke-width="0.5"/>
<text x="472" y="147.5" text-anchor="start" fill="#5a5f7a" font-size="9.5">4</text>
<circle cx="435" cy="168" r="5" fill="#ffd23f" stroke="#000" stroke-width="0.5"/>
<text x="428" y="171.5" text-anchor="end" fill="#e8eaf0" font-size="9.5">5</text>
<circle cx="465" cy="168" r="5" fill="#b3bcc4" stroke="#000" stroke-width="0.5"/>
<text x="472" y="171.5" text-anchor="start" fill="#e8eaf0" font-size="9.5">6</text>
<circle cx="435" cy="192" r="3.2" fill="#5a5f7a" stroke="#000" stroke-width="0.5"/>
<text x="428" y="195.5" text-anchor="end" fill="#5a5f7a" font-size="9.5">7</text>
<circle cx="465" cy="192" r="3.2" fill="#5a5f7a" stroke="#000" stroke-width="0.5"/>
<text x="472" y="195.5" text-anchor="start" fill="#5a5f7a" font-size="9.5">8</text>
<circle cx="435" cy="216" r="3.2" fill="#5a5f7a" stroke="#000" stroke-width="0.5"/>
<text x="428" y="219.5" text-anchor="end" fill="#5a5f7a" font-size="9.5">9</text>
<circle cx="465" cy="216" r="3.2" fill="#5a5f7a" stroke="#000" stroke-width="0.5"/>
<text x="472" y="219.5" text-anchor="start" fill="#5a5f7a" font-size="9.5">10</text>
<circle cx="435" cy="240" r="5" fill="#ff9f1c" stroke="#000" stroke-width="0.5"/>
<text x="428" y="243.5" text-anchor="end" fill="#e8eaf0" font-size="9.5">11</text>
<circle cx="465" cy="240" r="3.2" fill="#5a5f7a" stroke="#000" stroke-width="0.5"/>
<text x="472" y="243.5" text-anchor="start" fill="#5a5f7a" font-size="9.5">12</text>
<circle cx="435" cy="264" r="5" fill="#7f8c9b" stroke="#000" stroke-width="0.5"/>
<text x="428" y="267.5" text-anchor="end" fill="#e8eaf0" font-size="9.5">13</text>
<circle cx="465" cy="264" r="5" fill="#b3bcc4" stroke="#000" stroke-width="0.5"/>
<text x="472" y="267.5" text-anchor="start" fill="#e8eaf0" font-size="9.5">14</text>
<circle cx="435" cy="288" r="3.2" fill="#5a5f7a" stroke="#000" stroke-width="0.5"/>
<text x="428" y="291.5" text-anchor="end" fill="#5a5f7a" font-size="9.5">15</text>
<circle cx="465" cy="288" r="5" fill="#7f8c9b" stroke="#000" stroke-width="0.5"/>
<text x="472" y="291.5" text-anchor="start" fill="#e8eaf0" font-size="9.5">16</text>
<circle cx="435" cy="312" r="5" fill="#ff5b5b" stroke="#000" stroke-width="0.5"/>
<text x="428" y="315.5" text-anchor="end" fill="#e8eaf0" font-size="9.5">17</text>
<circle cx="465" cy="312" r="5" fill="#7f8c9b" stroke="#000" stroke-width="0.5"/>
<text x="472" y="315.5" text-anchor="start" fill="#e8eaf0" font-size="9.5">18</text>
<circle cx="435" cy="336" r="5" fill="#ffd23f" stroke="#000" stroke-width="0.5"/>
<text x="428" y="339.5" text-anchor="end" fill="#e8eaf0" font-size="9.5">19</text>
<circle cx="465" cy="336" r="3.2" fill="#5a5f7a" stroke="#000" stroke-width="0.5"/>
<text x="472" y="339.5" text-anchor="start" fill="#5a5f7a" font-size="9.5">20</text>
<circle cx="435" cy="360" r="5" fill="#ffd23f" stroke="#000" stroke-width="0.5"/>
<text x="428" y="363.5" text-anchor="end" fill="#e8eaf0" font-size="9.5">21</text>
<circle cx="465" cy="360" r="5" fill="#4d96ff" stroke="#000" stroke-width="0.5"/>
<text x="472" y="363.5" text-anchor="start" fill="#e8eaf0" font-size="9.5">22</text>
<circle cx="435" cy="384" r="5" fill="#ffd23f" stroke="#000" stroke-width="0.5"/>
<text x="428" y="387.5" text-anchor="end" fill="#e8eaf0" font-size="9.5">23</text>
<circle cx="465" cy="384" r="5" fill="#4d96ff" stroke="#000" stroke-width="0.5"/>
<text x="472" y="387.5" text-anchor="start" fill="#e8eaf0" font-size="9.5">24</text>
<circle cx="435" cy="408" r="5" fill="#b3bcc4" stroke="#000" stroke-width="0.5"/>
<text x="428" y="411.5" text-anchor="end" fill="#e8eaf0" font-size="9.5">25</text>
<circle cx="465" cy="408" r="3.2" fill="#5a5f7a" stroke="#000" stroke-width="0.5"/>
<text x="472" y="411.5" text-anchor="start" fill="#5a5f7a" font-size="9.5">26</text>
<circle cx="435" cy="432" r="3.2" fill="#5a5f7a" stroke="#000" stroke-width="0.5"/>
<text x="428" y="435.5" text-anchor="end" fill="#5a5f7a" font-size="9.5">27</text>
<circle cx="465" cy="432" r="3.2" fill="#5a5f7a" stroke="#000" stroke-width="0.5"/>
<text x="472" y="435.5" text-anchor="start" fill="#5a5f7a" font-size="9.5">28</text>
<circle cx="435" cy="456" r="3.2" fill="#5a5f7a" stroke="#000" stroke-width="0.5"/>
<text x="428" y="459.5" text-anchor="end" fill="#5a5f7a" font-size="9.5">29</text>
<circle cx="465" cy="456" r="3.2" fill="#5a5f7a" stroke="#000" stroke-width="0.5"/>
<text x="472" y="459.5" text-anchor="start" fill="#5a5f7a" font-size="9.5">30</text>
<circle cx="435" cy="480" r="3.2" fill="#5a5f7a" stroke="#000" stroke-width="0.5"/>
<text x="428" y="483.5" text-anchor="end" fill="#5a5f7a" font-size="9.5">31</text>
<circle cx="465" cy="480" r="3.2" fill="#5a5f7a" stroke="#000" stroke-width="0.5"/>
<text x="472" y="483.5" text-anchor="start" fill="#5a5f7a" font-size="9.5">32</text>
<circle cx="435" cy="504" r="3.2" fill="#5a5f7a" stroke="#000" stroke-width="0.5"/>
<text x="428" y="507.5" text-anchor="end" fill="#5a5f7a" font-size="9.5">33</text>
<circle cx="465" cy="504" r="3.2" fill="#5a5f7a" stroke="#000" stroke-width="0.5"/>
<text x="472" y="507.5" text-anchor="start" fill="#5a5f7a" font-size="9.5">34</text>
<circle cx="435" cy="528" r="3.2" fill="#5a5f7a" stroke="#000" stroke-width="0.5"/>
<text x="428" y="531.5" text-anchor="end" fill="#5a5f7a" font-size="9.5">35</text>
<circle cx="465" cy="528" r="3.2" fill="#5a5f7a" stroke="#000" stroke-width="0.5"/>
<text x="472" y="531.5" text-anchor="start" fill="#5a5f7a" font-size="9.5">36</text>
<circle cx="435" cy="552" r="3.2" fill="#5a5f7a" stroke="#000" stroke-width="0.5"/>
<text x="428" y="555.5" text-anchor="end" fill="#5a5f7a" font-size="9.5">37</text>
<circle cx="465" cy="552" r="3.2" fill="#5a5f7a" stroke="#000" stroke-width="0.5"/>
<text x="472" y="555.5" text-anchor="start" fill="#5a5f7a" font-size="9.5">38</text>
<circle cx="435" cy="576" r="3.2" fill="#5a5f7a" stroke="#000" stroke-width="0.5"/>
<text x="428" y="579.5" text-anchor="end" fill="#5a5f7a" font-size="9.5">39</text>
<circle cx="465" cy="576" r="3.2" fill="#5a5f7a" stroke="#000" stroke-width="0.5"/>
<text x="472" y="579.5" text-anchor="start" fill="#5a5f7a" font-size="9.5">40</text>
<rect x="40" y="110" width="210" height="132" rx="10" fill="#1f2544" stroke="#3a4a7a" stroke-width="1.5"/>
<text x="56" y="136" fill="#e8eaf0" font-size="16" font-weight="700">SSD1306 OLED</text>
<text x="56" y="154" fill="#5a5f7a" font-size="11">0.96" · I2C · 128x64</text>
<circle cx="250" cy="150" r="4.5" fill="#ff5b5b" stroke="#000" stroke-width="0.5"/>
<text x="56" y="154" text-anchor="start" fill="#e8eaf0" font-size="12">VCC — Pin 1 (3V3)</text>
<circle cx="250" cy="173" r="4.5" fill="#b3bcc4" stroke="#000" stroke-width="0.5"/>
<text x="56" y="177" text-anchor="start" fill="#e8eaf0" font-size="12">GND — Pin 6</text>
<circle cx="250" cy="196" r="4.5" fill="#ffd23f" stroke="#000" stroke-width="0.5"/>
<text x="56" y="200" text-anchor="start" fill="#e8eaf0" font-size="12">SDA — Pin 3 (GPIO2)</text>
<circle cx="250" cy="219" r="4.5" fill="#ffd23f" stroke="#000" stroke-width="0.5"/>
<text x="56" y="223" text-anchor="start" fill="#e8eaf0" font-size="12">SCL — Pin 5 (GPIO3)</text>
<rect x="40" y="300" width="210" height="210" rx="10" fill="#1f2544" stroke="#3a4a7a" stroke-width="1.5"/>
<text x="56" y="326" fill="#e8eaf0" font-size="16" font-weight="700">RC522 RFID</text>
<text x="56" y="344" fill="#5a5f7a" font-size="11">13.56 MHz · SPI</text>
<circle cx="250" cy="345" r="4.5" fill="#ff5b5b" stroke="#000" stroke-width="0.5"/>
<text x="56" y="349" text-anchor="start" fill="#e8eaf0" font-size="12">VCC — Pin 17 (3V3)</text>
<circle cx="250" cy="368" r="4.5" fill="#b3bcc4" stroke="#000" stroke-width="0.5"/>
<text x="56" y="372" text-anchor="start" fill="#e8eaf0" font-size="12">GND — Pin 25</text>
<circle cx="250" cy="391" r="4.5" fill="#4d96ff" stroke="#000" stroke-width="0.5"/>
<text x="56" y="395" text-anchor="start" fill="#e8eaf0" font-size="12">RST — Pin 22 (GPIO25)</text>
<circle cx="250" cy="414" r="4.5" fill="#4d96ff" stroke="#000" stroke-width="0.5"/>
<text x="56" y="418" text-anchor="start" fill="#e8eaf0" font-size="12">SDA/CS — Pin 24 (GPIO8)</text>
<circle cx="250" cy="437" r="4.5" fill="#ffd23f" stroke="#000" stroke-width="0.5"/>
<text x="56" y="441" text-anchor="start" fill="#e8eaf0" font-size="12">MOSI — Pin 19 (GPIO10)</text>
<circle cx="250" cy="460" r="4.5" fill="#ffd23f" stroke="#000" stroke-width="0.5"/>
<text x="56" y="464" text-anchor="start" fill="#e8eaf0" font-size="12">MISO — Pin 21 (GPIO9)</text>
<circle cx="250" cy="483" r="4.5" fill="#ffd23f" stroke="#000" stroke-width="0.5"/>
<text x="56" y="487" text-anchor="start" fill="#e8eaf0" font-size="12">SCK — Pin 23 (GPIO11)</text>
<rect x="650" y="110" width="210" height="110" rx="10" fill="#1f2544" stroke="#3a4a7a" stroke-width="1.5"/>
<text x="666" y="136" fill="#e8eaf0" font-size="16" font-weight="700">Active Buzzer</text>
<text x="666" y="154" fill="#5a5f7a" font-size="11">3-pin · GPIO driven</text>
<circle cx="650" cy="150" r="4.5" fill="#ff5b5b" stroke="#000" stroke-width="0.5"/>
<text x="666" y="154" text-anchor="start" fill="#e8eaf0" font-size="12">VCC — Pin 2 (5V)</text>
<circle cx="650" cy="173" r="4.5" fill="#b3bcc4" stroke="#000" stroke-width="0.5"/>
<text x="666" y="177" text-anchor="start" fill="#e8eaf0" font-size="12">GND — Pin 14</text>
<circle cx="650" cy="196" r="4.5" fill="#ff9f1c" stroke="#000" stroke-width="0.5"/>
<text x="666" y="200" text-anchor="start" fill="#e8eaf0" font-size="12">I/O — Pin 11 (GPIO17)</text>
<rect x="650" y="300" width="210" height="175" rx="10" fill="#1f2544" stroke="#3a4a7a" stroke-width="1.5"/>
<text x="666" y="326" fill="#e8eaf0" font-size="16" font-weight="700">3x Buttons</text>
<text x="666" y="344" fill="#5a5f7a" font-size="11">decorative — not read in code</text>
<circle cx="650" cy="350" r="4.5" fill="#7f8c9b" stroke="#000" stroke-width="0.5"/>
<text x="666" y="354" text-anchor="start" fill="#e8eaf0" font-size="12">BTN1 — Pin 16 (GPIO23)</text>
<circle cx="650" cy="385" r="4.5" fill="#7f8c9b" stroke="#000" stroke-width="0.5"/>
<text x="666" y="389" text-anchor="start" fill="#e8eaf0" font-size="12">BTN2 — Pin 18 (GPIO24)</text>
<circle cx="650" cy="420" r="4.5" fill="#7f8c9b" stroke="#000" stroke-width="0.5"/>
<text x="666" y="424" text-anchor="start" fill="#e8eaf0" font-size="12">BTN3 — Pin 13 (GPIO27)</text>
<text x="666" y="452" fill="#5a5f7a" font-size="11">+ common GND (dashed = inert)</text>
<rect x="40" y="614" width="820" height="96" rx="10" fill="#1f2544" stroke="#3a4a7a" stroke-width="1.2"/>
<text x="56" y="636" fill="#e8eaf0" font-size="14" font-weight="700">Legend</text>
<line x1="64" y1="662" x2="98" y2="662" stroke="#ff5b5b" stroke-width="3.2"/>
<circle cx="81" cy="662" r="4" fill="#ff5b5b"/>
<text x="108" y="666" fill="#e8eaf0" font-size="12">Power (VCC / 3V3 / 5V)</text>
<line x1="334" y1="662" x2="368" y2="662" stroke="#b3bcc4" stroke-width="3.2"/>
<circle cx="351" cy="662" r="4" fill="#b3bcc4"/>
<text x="378" y="666" fill="#e8eaf0" font-size="12">Ground (GND)</text>
<line x1="604" y1="662" x2="638" y2="662" stroke="#ffd23f" stroke-width="3.2"/>
<circle cx="621" cy="662" r="4" fill="#ffd23f"/>
<text x="648" y="666" fill="#e8eaf0" font-size="12">Data / signal (SDA·SCL·MOSI·MISO·SCK)</text>
<line x1="64" y1="692" x2="98" y2="692" stroke="#ff9f1c" stroke-width="3.2"/>
<circle cx="81" cy="692" r="4" fill="#ff9f1c"/>
<text x="108" y="696" fill="#e8eaf0" font-size="12">GPIO control (Buzzer I/O)</text>
<line x1="334" y1="692" x2="368" y2="692" stroke="#4d96ff" stroke-width="3.2"/>
<circle cx="351" cy="692" r="4" fill="#4d96ff"/>
<text x="378" y="696" fill="#e8eaf0" font-size="12">Reset / Chip-select (RST·CS)</text>
<line x1="604" y1="692" x2="638" y2="692" stroke="#7f8c9b" stroke-width="3.2" stroke-dasharray="5 4"/>
<circle cx="621" cy="692" r="4" fill="#7f8c9b"/>
<text x="648" y="696" fill="#e8eaf0" font-size="12">Decorative button (inert)</text>
<text x="884" y="750" text-anchor="end" fill="#5a5f7a" font-size="10">RC522 is 3.3V only — never wire it to 5V.</text>
</svg>